<?xml version="1.0" encoding="utf-8"?>
<!-- Generator: Adobe Illustrator 19.0.1, SVG Export Plug-In . SVG Version: 6.00 Build 0)  -->
<svg version="1.1" id="Layer_1" xmlns="http://www.w3.org/2000/svg" xmlns:xlink="http://www.w3.org/1999/xlink" x="0px" y="0px"
	 viewBox="0 0 819.3 377.3" enable-background="new 0 0 819.3 377.3" xml:space="preserve">
<path fill="#FFFFFF" d="M450.4,76.5c0-4.7,0.2-8.6,0.5-11.6h-3.7c-1.1,7-2.9,12.6-5.2,16.8c-2.3,4.2-5.2,7.2-8.8,9.1
	c-3.5,1.8-7.8,2.8-12.9,2.8h-6.9c-2.8,0-4.8-0.2-6.2-0.7c-1.4-0.5-2.4-1.5-3-2.9c-0.6-1.5-0.9-3.7-0.9-6.7V49.9h7.5
	c5.1,0,9,1.6,11.6,4.8c2.6,3.2,4.3,7.4,5,12.4h3.7c-0.6-7.8-0.9-14.1-0.9-18.9l-0.1-6.4c0-4.1,0.2-8.3,0.5-12.4H427
	c-0.8,4.6-2.5,8.6-5,12.1c-2.5,3.5-6.2,5.2-11.2,5.2h-7.5V14.1c0-3,0.3-5.3,0.9-6.7c0.6-1.5,1.6-2.4,3-2.9c1.4-0.5,3.4-0.7,6.2-0.7
	h5.9c4.6,0,8.5,0.8,11.7,2.5c3.2,1.6,5.9,4.3,8,8c2.1,3.7,3.8,8.7,4.8,15h3.7c-0.3-2.4-0.5-5.8-0.5-9.9c0-5.7,0.4-12.1,1.1-19.2
	c-6.2,0.3-16.8,0.5-31.8,0.5c-22,0-38.5-0.2-49.6-0.5v3.2c3.6,0.2,6.2,0.6,7.8,1.2c1.6,0.7,2.7,1.9,3.3,3.8c0.6,1.8,0.9,4.7,0.9,8.8
	v63.4c0,4-0.3,6.9-0.9,8.8c-0.6,1.8-1.7,3.1-3.3,3.8c-1.6,0.7-4.2,1.1-7.8,1.2v3.2c11.1-0.3,27.6-0.5,49.6-0.5
	c16.4,0,28.1,0.2,35,0.5C450.8,89.6,450.4,82.6,450.4,76.5z M415.4,283.2V280c-5.5,0.3-13.3,0.5-23.2,0.5c-11.4,0-19.8-0.2-25.3-0.5
	v3.2c3.6,0.2,6.2,0.6,7.8,1.2c1.6,0.7,2.7,1.9,3.3,3.8c0.6,1.8,0.9,4.7,0.9,8.8v63.4c0,4-0.3,6.9-0.9,8.8c-0.6,1.8-1.7,3.1-3.3,3.8
	c-1.6,0.7-4.2,1.1-7.8,1.2v3.2c11.1-0.3,27.6-0.5,49.6-0.5c16.4,0,28.1,0.2,35,0.5c-0.7-8.4-1.1-16-1.1-22.7c0-5.3,0.2-9.7,0.5-13.1
	h-3.7c-1.7,11.3-4.9,19.5-9.7,24.6c-4.8,5.1-10.7,7.6-17.8,7.6h-6.2c-2.8,0-4.8-0.3-6.2-0.8c-1.4-0.5-2.4-1.6-3-3.2
	c-0.6-1.6-0.9-4.1-0.9-7.4V297c0-4.1,0.3-7,0.9-8.8c0.6-1.8,1.7-3,3.3-3.7C409.1,283.8,411.7,283.4,415.4,283.2z M495.4,191.4
	l2.7,6.6h2.3l-9.4-22.4h-2.5L479,198h2.3l2.7-6.6H495.4z M494.6,189.5h-9.7l2.2-5.4c1.8-4.2,2.6-6.4,2.6-6.5h0.1
	c0,0,0.8,2.1,2.5,6.2L494.6,189.5z M524.3,177.7v-2.1h-15V198h2.2v-10h9.6v-2.1h-9.6v-8.2H524.3z M550.2,177.7v-2.1h-18.3v2.1h8V198
	h2.2v-20.3H550.2z M556.1,186.8c0,6.7,5.1,11.6,11.6,11.6c6.6,0,11.7-4.9,11.7-11.6c0-6.8-5.1-11.7-11.7-11.7
	C561.2,175.1,556.1,180.1,556.1,186.8z M558.3,186.8c0-5.7,4.1-9.6,9.4-9.6c5.3,0,9.4,3.9,9.4,9.6c0,5.7-4.2,9.6-9.4,9.6
	C562.4,196.4,558.3,192.5,558.3,186.8z M607.2,198v-22.4H605v13.9c0,2.6,0.1,4.9,0.1,4.9H605l-13.8-18.8h-2.3V198h2.2v-13.9
	c0-2.7-0.1-5.1-0.1-5.2h0.1l13.8,19H607.2z M619.2,198.1c-0.1,0.9-0.9,2.5-2.3,3l1,1c2.2-0.8,3.3-3.2,3.3-4.8c0-1.4-0.8-2.2-1.9-2.2
	c-1.1,0-1.8,0.7-1.8,1.6C617.6,197.7,618.2,198.3,619.2,198.1z M655.4,198l9.9-22.4h-2.3l-5.2,11.6c-2.5,5.8-3.5,8.2-3.5,8.2h-0.1
	c0-0.1-1.1-2.6-3.6-8.3l-5.1-11.5H643l9.9,22.4H655.4z M673.8,198h2.2v-22.4h-2.2V198z M700.6,198h2.4l-6-9.8
	c3.2-0.6,5.4-2.7,5.4-6.2c0-4.2-3.2-6.5-8.5-6.5h-6.8V198h2.2v-9.3h2.9c0.6,0,1.6,0,2.6-0.1L700.6,198z M689.4,186.8v-9.2h4.6
	c3.8,0,6.2,1.3,6.2,4.6c0,3.1-2.2,4.6-6.2,4.6H689.4z M733.6,198v-11.2h-9.1v2h7.1v3.3c-1,1.8-4.3,4.3-8.7,4.3
	c-5.7,0-9.8-3.9-9.8-9.6c0-5.8,4.1-9.6,9.5-9.6c4.6,0,7.3,2.8,8.4,5.1l2.1-0.6c-2-4.8-6.6-6.6-10.6-6.6c-6.6,0-11.7,4.9-11.7,11.7
	c0,6.7,5,11.6,11.8,11.6c5,0,7.8-2.8,8.9-4.2h0c0,0.1,0,0.8,0,3.7H733.6z M744,198h2.2v-22.4H744V198z M775.7,198v-22.4h-2.2v13.9
	c0,2.6,0.1,4.9,0.1,4.9h-0.1l-13.8-18.8h-2.3V198h2.2v-13.9c0-2.7-0.1-5.1-0.1-5.2h0.1l13.8,19H775.7z M786.8,198h2.2v-22.4h-2.2
	V198z M814.3,191.4l2.7,6.6h2.3l-9.4-22.4h-2.5l-9.5,22.4h2.3l2.7-6.6H814.3z M813.4,189.5h-9.7l2.2-5.4c1.8-4.2,2.6-6.4,2.6-6.5
	h0.1c0,0,0.8,2.1,2.5,6.2L813.4,189.5z M15.8,179.6v-3.9H0V198h4.2v-8.4h8.5v-3.9H4.2v-6.2H15.8z M21.6,198h16.6v-3.9H25.8v-5.7h9.2
	v-3.7h-9.2v-5.1h12.2v-3.9H21.6V198z M57.4,186c1.6-0.5,3.4-1.8,3.4-4.7c0-3-2.8-5.7-6.9-5.7h-9.5V198H54c5.4,0,8-2.9,8-6.4
	c0-3.3-2.4-5-4.7-5.5V186z M48.5,184.8v-5.7H53c2.3,0,3.5,1.2,3.5,2.8c0,1.9-1.6,2.9-3.5,2.9H48.5z M48.5,194.5v-6.4h5.2
	c2.3,0,4,1.2,4,3.3c0,2-1.5,3.1-3.9,3.1H48.5z M81.2,198h4.5l-5.5-9.1c2.6-0.8,4.6-2.8,4.6-6.2c0-4.4-3.3-7.1-9-7.1h-8V198h4.2v-8.2
	h2c0.4,0,1.6,0,2.3,0L81.2,198z M71.9,186.5v-7.1h4c2.9,0,4.6,1.1,4.6,3.5c0,2.4-1.6,3.6-4.6,3.6H71.9z M110.4,175.6h-4.2v12.8
	c0,4.2-1.9,6.2-5.7,6.2c-3.8,0-5.7-2-5.7-6.2v-12.8h-4.3V188c0,7.2,3.7,10.5,9.9,10.5c6.2,0,9.9-3.3,9.9-10.5V175.6z M130.2,192.8
	l2,5.3h4.4l-8.8-22.4h-5.1l-8.8,22.4h4.3l2-5.3H130.2z M128.8,189.1h-7.4l1.5-4l2.2-5.9h0.1c0,0,0.6,1.8,2,5.7L128.8,189.1z
	 M155.1,198h4.5l-5.5-9.1c2.6-0.8,4.6-2.8,4.6-6.2c0-4.4-3.3-7.1-9-7.1h-8V198h4.2v-8.2h2c0.4,0,1.6,0,2.3,0L155.1,198z
	 M145.8,186.5v-7.1h4c2.9,0,4.6,1.1,4.6,3.5c0,2.4-1.6,3.6-4.6,3.6H145.8z M174.4,198v-8.7l8.5-13.7h-4.4l-3.1,5.1
	c-1.6,2.6-2.8,4.6-2.8,4.6h-0.1c0,0-1.2-2-2.7-4.6l-3.2-5.2h-4.8l8.4,13.7v8.7H174.4z M198.4,198h16.4v-3.8h-8.2
	c-1.8,0-3,0.1-3.4,0.1l0-0.1l5.6-4.1c3.6-2.4,5.8-4.3,5.8-8c0-4.2-2.9-6.9-8.2-6.9c-4,0-7.6,1.6-8.4,5.8l4,1.1
	c0.2-1.8,1.5-3.4,4.1-3.4c2.8,0,4.2,1.6,4.2,3.5c0,1.9-1.3,3.2-4,5.3l-8,5.9V198z M236.8,178.7v-3.1h-17.3v3.9h9.5l3,0l0.1,0.1
	c0,0-1.2,1.9-2.4,4.1l-8.1,14.3h4.3L236.8,178.7z M240.6,197.8c-0.3,0.9-1.2,2.1-2.4,2.4l1.7,1.8c2.6-0.8,4-3.2,4-5.3
	c0-1.9-1.2-3.1-2.8-3.1c-1.5,0-2.4,1-2.4,2.2C238.6,197.2,239.4,198,240.6,197.8z M260.9,198h16.4v-3.8h-8.2c-1.8,0-3,0.1-3.4,0.1
	l0-0.1l5.6-4.1c3.6-2.4,5.8-4.3,5.8-8c0-4.2-2.9-6.9-8.2-6.9c-4,0-7.6,1.6-8.4,5.8l4,1.1c0.2-1.8,1.5-3.4,4.1-3.4
	c2.8,0,4.2,1.6,4.2,3.5c0,1.9-1.3,3.2-4,5.3l-8,5.9V198z M291,175.2c-5.7,0-9.1,4-9.1,11.6s3.4,11.6,9.1,11.6c5.6,0,9.1-4,9.1-11.6
	S296.6,175.2,291,175.2z M291,179c3.4,0,4.9,2.5,4.9,7.8c0,5.3-1.5,7.8-4.9,7.8c-3.4,0-4.9-2.5-4.9-7.8
	C286.1,181.5,287.6,179,291,179z M310.2,198h4.2v-22.4h-3.9l-6.1,5.4l2.4,3l1.9-1.9c0.5-0.4,1.5-1.7,1.6-1.7h0.1
	c0,0-0.2,2.4-0.2,4.1V198z M326,185.1l7.3-9.4h-4.5l-5.2,6.6c-2.2,2.8-3.4,5.3-3.4,8.2c0,5.2,3.7,8,8.7,8c5.3,0,8.8-3.1,8.8-7.7
	c0-4.3-3.3-7.1-7.5-7.1c-1.8,0-3.2,0.6-4.1,1.6L326,185.1z M329.1,194.9c-2.8,0-4.7-1.6-4.7-4.3c0-2.6,1.8-4.2,4.7-4.2
	c2.9,0,4.7,1.6,4.7,4.2C333.8,193.3,331.9,194.9,329.1,194.9z M412.5,188.6l182.6,182.6l-2.8,2.8L409.7,191.5L227.1,374l-2.8-2.8
	l182.6-182.6L224.2,6l2.8-2.8l182.6,182.6L592.2,3.2l2.8,2.8L412.5,188.6z"/>
</svg>
