<?xml version="1.0" encoding="utf-8"?>
<!-- Generator: Adobe Illustrator 19.0.1, SVG Export Plug-In . SVG Version: 6.00 Build 0)  -->
<svg version="1.1" id="Layer_1" xmlns="http://www.w3.org/2000/svg" xmlns:xlink="http://www.w3.org/1999/xlink" x="0px" y="0px"
	 viewBox="0 0 517 517" enable-background="new 0 0 517 517" xml:space="preserve">
<g>
	<path fill="#FFFFFF" d="M225.4,93.7h65.4v15.7h-48.6v20.5h36.6v14.9h-36.6v22.9h49.4v15.7h-66.2V93.7z"/>
</g>
<g>
	<path fill="#FFFFFF" d="M228,333.7h16.8v73.9H289v15.7h-61V333.7z"/>
</g>
<g>
	<g>
		<path fill="#FFFFFF" d="M135.1,229.2c0,13.5-6,20.4-15.9,20.4c-10,0-16-7-16-20.4c0-13.5,6-20.4,16-20.4
			C129.1,208.8,135.1,215.8,135.1,229.2z M110.5,229.2c0,9.3,2.7,13.7,8.6,13.7c5.9,0,8.6-4.4,8.6-13.7c0-9.3-2.7-13.7-8.6-13.7
			C113.2,215.6,110.5,219.9,110.5,229.2z"/>
		<path fill="#FFFFFF" d="M105,299.4l14-10.3c4.8-3.7,7.1-6,7.1-9.3c0-3.4-2.3-6.2-7.3-6.2c-4.6,0-6.9,2.7-7.2,5.9l-7-1.9
			c1.4-7.5,7.7-10.3,14.7-10.3c9.3,0,14.3,4.7,14.3,12.1c0,6.5-4,9.8-10.3,14.1l-9.9,7.2l0.1,0.2c0.6,0,2.7-0.1,5.9-0.1h14.3v6.6
			H105V299.4z"/>
	</g>
	<g>
		<path fill="#FFFFFF" d="M144.4,240.9l14-10.3c4.8-3.7,7.1-6,7.1-9.3c0-3.4-2.3-6.2-7.3-6.2c-4.6,0-6.9,2.7-7.2,5.9l-7-1.9
			c1.4-7.5,7.7-10.3,14.7-10.3c9.3,0,14.3,4.7,14.3,12.1c0,6.5-4,9.8-10.3,14.1l-9.9,7.2l0.1,0.2c0.6,0,2.7-0.1,5.9-0.1h14.3v6.6
			h-28.7V240.9z"/>
		<path fill="#FFFFFF" d="M153.5,284.9c1.6-1.8,4-2.7,7.2-2.7c7.4,0,13.1,5,13.1,12.5c0,8.1-6.1,13.5-15.4,13.5
			c-8.8,0-15.3-5-15.3-14.1c0-5.1,2.2-9.5,6-14.5l9.1-11.5h7.9l-12.8,16.6L153.5,284.9z M166.9,294.4c0-4.5-3.2-7.3-8.3-7.3
			c-5.1,0-8.2,2.8-8.2,7.3c0,4.6,3.2,7.5,8.2,7.5C163.6,301.9,166.8,299.1,166.9,294.4z"/>
	</g>
</g>
<g>
	<g>
		<path fill="#FFFFFF" d="M343,241l13.9-10.3c4.7-3.6,7-6,7-9.3c0-3.4-2.3-6.1-7.3-6.1c-4.6,0-6.8,2.7-7.2,5.9l-6.9-1.9
			c1.4-7.5,7.6-10.2,14.6-10.2c9.2,0,14.2,4.7,14.2,12.1c0,6.5-4,9.8-10.2,14l-9.8,7.1l0.1,0.2c0.6,0,2.7-0.1,5.9-0.1h14.2v6.6H343
			V241z"/>
		<path fill="#FFFFFF" d="M358.5,283.7c0-3.1,0.3-7.2,0.3-7.2h-0.1c-0.1,0-1.8,2.2-2.7,2.9l-3.3,3.3l-4.3-5.2L359,268h6.8v39.1h-7.3
			V283.7z"/>
	</g>
	<g>
		<path fill="#FFFFFF" d="M414.4,229.4c0,13.4-6,20.3-15.8,20.3c-9.9,0-15.9-6.9-15.9-20.3s6-20.3,15.9-20.3
			C408.4,209.1,414.4,216,414.4,229.4z M389.9,229.4c0,9.2,2.7,13.6,8.6,13.6c5.9,0,8.5-4.4,8.5-13.6c0-9.3-2.7-13.6-8.5-13.6
			C392.6,215.8,389.9,220.1,389.9,229.4z"/>
		<path fill="#FFFFFF" d="M393.5,284.7c1.6-1.7,4-2.7,7.2-2.7c7.3,0,13.1,5,13.1,12.4c0,8-6.1,13.5-15.3,13.5c-8.7,0-15.2-5-15.2-14
			c0-5.1,2.2-9.4,6-14.4l9-11.4h7.8l-12.8,16.5L393.5,284.7z M406.8,294.2c0-4.5-3.1-7.3-8.2-7.3c-5,0-8.2,2.8-8.2,7.3
			c0,4.6,3.2,7.5,8.2,7.5S406.8,298.8,406.8,294.2z"/>
	</g>
</g>
<rect x="9" y="9" fill="none" stroke="#FFFFFF" stroke-width="18" stroke-miterlimit="10" width="499" height="499"/>
<g>
	<line fill="none" stroke="#FFFFFF" stroke-width="8" stroke-miterlimit="10" x1="81" y1="81" x2="436" y2="436"/>
	<line fill="none" stroke="#FFFFFF" stroke-width="8" stroke-miterlimit="10" x1="436" y1="81" x2="81" y2="436"/>
</g>
</svg>
